<?xml version="1.0" encoding="iso-8859-1"?>
<!-- Uploaded to: SVG Repo, www.svgrepo.com, Generator: SVG Repo Mixer Tools -->
<svg version="1.1" id="Layer_1" xmlns="http://www.w3.org/2000/svg" xmlns:xlink="http://www.w3.org/1999/xlink" 
	 viewBox="0 0 512 512" xml:space="preserve">
<path style="fill:#F2B3D8;" d="M511.992,185.6c-0.274-13.715-11.109-25.212-24.875-25.59c-14.467-0.397-26.319,11.213-26.319,25.59
	h0.003v132.573c0,10.185-4.046,19.951-11.247,27.153L409.6,385.28l-25.236-25.236l22.397-22.397l-0.005-0.005
	c9.504-9.892,9.972-25.683,0.506-35.685c-9.949-10.51-26.54-10.682-36.707-0.516l0.003,0.003l-40.863,40.863
	c-14.404,14.404-22.495,33.938-22.495,54.307V467.2h115.2v-12.8l67.105-67.105C503.909,372.891,512,353.357,512,332.988V185.6
	H511.992z"/>
<path style="fill:#E592BF;" d="M511.992,185.6c-0.274-13.715-11.109-25.212-24.875-25.59c-14.467-0.397-26.319,11.213-26.319,25.59
	h0.003v132.573c0,10.185-4.046,19.951-11.247,27.153L409.6,385.28l-25.236-25.236l22.397-22.397l-0.005-0.005
	c9.504-9.892,9.972-25.683,0.506-35.685c-9.746-10.296-25.85-10.644-36.06-1.098V467.2h51.2v-12.8l67.105-67.105
	C503.909,372.891,512,353.357,512,332.988V185.6H511.992z"/>
<path style="fill:#F2B3D8;" d="M182.307,342.305l-40.863-40.863l0.003-0.003c-10.167-10.167-26.757-9.994-36.707,0.516
	c-9.467,10.001-9,25.792,0.506,35.685l-0.005,0.005l22.397,22.397L102.4,385.28l-39.953-39.953
	c-7.201-7.201-11.247-16.969-11.247-27.153V185.6h0.003c0-14.378-11.853-25.987-26.319-25.59
	c-13.766,0.378-24.602,11.875-24.876,25.59H0v147.388c0,20.369,8.091,39.903,22.495,54.305L89.6,454.4v12.8h115.2v-70.588
	C204.8,376.243,196.709,356.709,182.307,342.305z"/>
<path style="fill:#E592BF;" d="M204.8,396.612c0-20.369-8.091-39.903-22.493-54.305l-40.863-40.863l0.003-0.003
	c-0.207-0.207-0.433-0.384-0.645-0.582V467.2h64v-70.588H204.8z"/>
<circle style="fill:#98C8ED;" cx="256" cy="147.2" r="115.2"/>
<g>
	<path style="fill:#7AB9E8;" d="M256,32v230.4c63.624,0,115.2-51.576,115.2-115.2S319.624,32,256,32z"/>
	<path style="fill:#7AB9E8;" d="M256,12.8c-74.108,0-134.4,60.292-134.4,134.4S181.892,281.6,256,281.6s134.4-60.292,134.4-134.4
		S330.108,12.8,256,12.8z M350.068,128h-36.965c-1.211-23.278-4.663-45.821-10.532-64.707
		C326.652,76.713,344.398,100.18,350.068,128z M237.353,166.4h37.295c-2.444,41.663-12.452,67.187-18.647,75.058
		C249.805,233.587,239.795,208.063,237.353,166.4z M237.353,128c2.442-41.663,12.452-67.187,18.647-75.058
		c6.195,7.871,16.205,33.395,18.647,75.058H237.353z M209.427,63.293c-5.869,18.885-9.32,41.428-10.532,64.707H161.93
		C167.602,100.18,185.348,76.713,209.427,63.293z M161.932,166.4h36.965c1.211,23.278,4.663,45.821,10.532,64.707
		C185.348,217.687,167.602,194.22,161.932,166.4z M302.573,231.107c5.869-18.885,9.32-41.428,10.532-64.707h36.965
		C344.398,194.22,326.652,217.687,302.573,231.107z"/>
</g>
<path style="fill:#579ADF;" d="M256,12.8v40.142c6.195,7.871,16.205,33.395,18.647,75.058H256v38.4h18.647
	c-2.444,41.663-12.452,67.187-18.647,75.058V281.6c74.108,0,134.4-60.292,134.4-134.4S330.108,12.8,256,12.8z M302.573,231.107
	c5.869-18.885,9.32-41.428,10.532-64.707h36.965C344.398,194.22,326.652,217.687,302.573,231.107z M313.103,128
	c-1.211-23.278-4.663-45.821-10.532-64.707c24.081,13.42,41.827,36.887,47.496,64.707H313.103z"/>
<rect x="294.4" y="454.4" style="fill:#7AB9E8;" width="140.8" height="44.8"/>
<rect x="294.4" y="454.4" style="fill:#88888F;" width="140.8" height="44.8"/>
<rect x="371.2" y="454.4" style="fill:#56545A;" width="64" height="44.8"/>
<rect x="76.8" y="454.4" style="fill:#88888F;" width="140.8" height="44.8"/>
<rect x="140.8" y="454.4" style="fill:#56545A;" width="76.8" height="44.8"/>
</svg>