<?xml version="1.0" encoding="iso-8859-1"?>
<!-- Uploaded to: SVG Repo, www.svgrepo.com, Generator: SVG Repo Mixer Tools -->
<svg version="1.1" id="Layer_1" xmlns="http://www.w3.org/2000/svg" xmlns:xlink="http://www.w3.org/1999/xlink" 
	 viewBox="0 0 512 512" xml:space="preserve">
<circle style="fill:#98C8ED;" cx="256" cy="256" r="256"/>
<path style="fill:#7AB9E8;" d="M256,0v512c141.384,0,256-114.616,256-256S397.384,0,256,0z"/>
<g>
	<path style="fill:#579ADF;" d="M502.917,323.765H316.235v45.176h169.549C492.853,354.589,498.613,339.479,502.917,323.765z"/>
	<path style="fill:#579ADF;" d="M485.784,143.059H316.235v45.176h186.681C498.613,172.521,492.853,157.411,485.784,143.059z"/>
</g>
<g>
	<path style="fill:#7AB9E8;" d="M26.216,368.941h169.549v-45.176H9.083C13.387,339.479,19.147,354.589,26.216,368.941z"/>
	<path style="fill:#7AB9E8;" d="M9.083,188.235h186.681v-45.176H26.216C19.147,157.411,13.387,172.521,9.083,188.235z"/>
</g>
<path style="fill:#F2F2F4;" d="M323.765,316.74V105.412c0-37.426-30.339-67.765-67.765-67.765s-67.765,30.339-67.765,67.765V316.74
	c-14.048,15.925-22.588,36.825-22.588,59.731c0,49.9,40.453,90.353,90.353,90.353s90.353-40.453,90.353-90.353
	C346.353,353.565,337.813,332.664,323.765,316.74z"/>
<path style="fill:#DFDFE1;" d="M323.765,316.74V105.412c0-37.426-30.339-67.765-67.765-67.765v429.176
	c49.9,0,90.353-40.453,90.353-90.353C346.353,353.565,337.813,332.664,323.765,316.74z"/>
<rect x="233.412" y="143.059" style="fill:#FF4F19;" width="45.176" height="203.294"/>
<path style="fill:#F2F2F4;" d="M310.713,494.181c4.844,0,4.853-7.529,0-7.529C305.869,486.651,305.861,494.181,310.713,494.181
	L310.713,494.181z"/>
<circle style="fill:#FF4F19;" cx="256" cy="376.471" r="45.176"/>
<path style="fill:#AF2E08;" d="M256,331.294v90.353c24.951,0,45.176-20.225,45.176-45.176
	C301.176,351.52,280.951,331.294,256,331.294z"/>
</svg>