<?xml version="1.0" encoding="iso-8859-1"?>
<!-- Uploaded to: SVG Repo, www.svgrepo.com, Generator: SVG Repo Mixer Tools -->
<svg version="1.1" id="Layer_1" xmlns="http://www.w3.org/2000/svg" xmlns:xlink="http://www.w3.org/1999/xlink" 
	 viewBox="0 0 512 512" xml:space="preserve">
<path style="fill:#CFCDD2;" d="M100.315,346.528l-86.877,86.877c-17.918,17.918-17.918,47.239,0,65.156
	c17.918,17.918,47.239,17.918,65.156,0l86.877-86.875L100.315,346.528z"/>
<path style="fill:#AEADB3;" d="M13.44,498.561c17.918,17.918,47.239,17.918,65.156,0l86.877-86.875l-32.578-32.578L13.44,498.561z"
	/>
<circle style="fill:#98C8ED;" cx="274.073" cy="237.937" r="199.65"/>
<path style="fill:#7AB9E8;" d="M415.241,96.76L132.893,379.106c77.968,77.968,204.38,77.968,282.348,0
	S493.209,174.728,415.241,96.76z"/>
<path style="fill:#DFDFE1;" d="M105.746,406.255c-92.813-92.814-92.814-243.831,0-336.645s243.832-92.813,336.645,0
	s92.814,243.831,0,336.645S198.558,499.069,105.746,406.255z M409.81,102.189c-74.85-74.85-196.638-74.849-271.488,0
	s-74.85,196.638,0,271.488s196.64,74.849,271.488,0S484.661,177.039,409.81,102.189z"/>
<path style="fill:#6DC180;" d="M211.941,300.793h38.394c63.665,0,115.182-51.517,115.182-115.182v-38.394h-38.394
	c-63.665,0-115.182,51.517-115.182,115.182V300.793"/>
<path style="fill:#5CA15D;" d="M365.516,185.612v-38.394h-0.733L211.939,300.062v0.733h38.394
	C314,300.793,365.517,249.275,365.516,185.612z"/>
<rect x="204.351" y="243.362" transform="matrix(-0.7071 -0.7071 0.7071 -0.7071 186.9199 646.6593)" style="fill:#4E894D;" width="46.073" height="82.511"/>
<path style="fill:#CFCDD2;" d="M442.39,69.611l-32.578,32.578c74.85,74.85,74.849,196.638,0,271.488s-196.638,74.85-271.488,0
	l-32.578,32.578c92.814,92.813,243.831,92.814,336.645,0S535.203,162.423,442.39,69.611z"/>
</svg>